<?xml version="1.0" standalone="no"?>
<!DOCTYPE svg PUBLIC "-//W3C//DTD SVG 20010904//EN"
 "http://www.w3.org/TR/2001/REC-SVG-20010904/DTD/svg10.dtd">
<svg version="1.0" xmlns="http://www.w3.org/2000/svg"
 width="260.000000pt" height="260.000000pt" viewBox="0 0 260.000000 260.000000"
 preserveAspectRatio="xMidYMid meet">
<metadata>
Created by potrace 1.11, written by Peter Selinger 2001-2013
</metadata>
<g transform="translate(0.000000,260.000000) scale(0.100000,-0.100000)"
fill="#000000" stroke="none">
<path d="M998 2571 c-82 -27 -138 -63 -196 -126 -142 -155 -172 -388 -75 -567
43 -79 161 -183 262 -231 82 -40 90 -42 181 -42 87 0 101 3 161 32 190 94 315
365 269 588 -26 129 -120 259 -225 313 -108 54 -266 68 -377 33z m285 -101
c113 -35 205 -121 250 -232 16 -40 21 -76 21 -148 1 -86 -2 -101 -30 -160 -55
-117 -163 -198 -314 -236 -208 -52 -429 103 -471 333 -34 180 93 378 283 444
72 25 179 24 261 -1z"/>
<path d="M1735 1681 c-147 -40 -278 -99 -391 -176 -71 -49 -90 -53 -154 -30
-156 55 -453 76 -593 42 -241 -59 -357 -218 -357 -488 1 -273 116 -464 412
-682 215 -159 448 -271 657 -318 178 -39 291 -18 438 81 228 153 425 374 528
593 65 137 86 221 92 367 6 144 -14 255 -68 367 -43 89 -134 184 -217 225 -60
30 -76 33 -172 35 -78 2 -123 -2 -175 -16z m361 -75 c156 -78 244 -251 244
-481 0 -145 -52 -323 -127 -437 -162 -244 -452 -526 -628 -609 -97 -47 -223
-36 -441 36 -515 171 -878 597 -825 968 24 166 121 282 283 338 127 44 372 25
572 -42 48 -17 98 -28 110 -25 11 3 62 35 111 71 106 77 325 189 410 210 37 9
90 13 139 11 66 -4 91 -10 152 -40z"/>
<path d="M1688 1533 c-69 -24 -137 -80 -172 -143 -29 -52 -31 -61 -31 -160 0
-93 3 -111 27 -163 38 -80 115 -158 191 -193 50 -23 76 -29 137 -29 65 0 82 4
129 30 111 61 167 169 165 320 -1 150 -63 264 -178 322 -65 34 -194 41 -268
16z m288 -119 c131 -80 171 -242 91 -361 -25 -37 -48 -56 -100 -82 -60 -31
-79 -36 -162 -39 -87 -4 -97 -2 -144 23 -80 44 -121 121 -121 229 1 107 54
189 155 238 55 27 67 29 147 26 75 -4 93 -8 134 -34z"/>
<path d="M1082 1185 c-40 -34 -67 -118 -59 -184 3 -25 25 -95 48 -156 76 -201
39 -250 -184 -248 -104 0 -107 0 -91 -18 28 -31 159 -118 225 -149 204 -96
429 -70 639 73 51 35 220 195 220 208 0 5 -24 9 -53 9 -187 0 -358 116 -509
346 -72 110 -101 134 -163 142 -34 3 -46 -1 -73 -23z m147 -83 c25 -26 69 -90
96 -141 65 -122 139 -200 218 -230 62 -23 163 -40 237 -41 l45 0 -40 -35
c-148 -126 -394 -201 -579 -176 -91 12 -156 28 -156 39 0 4 13 15 29 25 51 30
76 83 75 157 -1 55 -8 82 -48 174 -65 148 -66 234 -2 264 47 23 78 14 125 -36z"/>
</g>
</svg>
