<?xml version="1.0" encoding="utf-8"?>
<!-- Generator: Adobe Illustrator 22.0.1, SVG Export Plug-In . SVG Version: 6.00 Build 0)  -->
<svg version="1.1" id="Layer_1" xmlns="http://www.w3.org/2000/svg" xmlns:xlink="http://www.w3.org/1999/xlink" x="0px" y="0px"
	 viewBox="0 0 204.2 115" style="enable-background:new 0 0 204.2 115;" xml:space="preserve">
<style type="text/css">
	.st0{fill:#085AA6;}
	.st1{fill:none;stroke:#085AA6;stroke-width:1.2;stroke-miterlimit:10;}
	.st2{fill:#020203;}
	.st3{fill:#E99718;}
</style>
<g>
	<path class="st0" d="M22.3,72.6c0.1,0-0.3,1.3-0.8,2.7l-4.6,12.2c-0.6,1.5-1.1,2.6-1.2,2.6S15,89,14.4,87.5L9.8,75.4
		c-0.6-1.5-0.9-2.7-0.8-2.7s0.6,1.1,1.2,2.6L14.6,87c0.6,1.5,1.5,1.5,2,0l4.5-11.8C21.7,73.8,22.2,72.6,22.3,72.6z"/>
	<path class="st1" d="M22.3,72.6c0.1,0-0.3,1.3-0.8,2.7l-4.6,12.2c-0.6,1.5-1.1,2.6-1.2,2.6S15,89,14.4,87.5L9.8,75.4
		c-0.6-1.5-0.9-2.7-0.8-2.7s0.6,1.1,1.2,2.6L14.6,87c0.6,1.5,1.5,1.5,2,0l4.5-11.8C21.7,73.8,22.2,72.6,22.3,72.6z"/>
</g>
<g>
	<path class="st0" d="M36,90.2c0,0.1-1.3,0.2-2.8,0.2h-5.4c-1.6,0-2.8-1.3-2.8-2.8V75.3c0-1.6,1.3-2.8,2.8-2.8h5.4
		c1.6,0,2.8,0.1,2.8,0.2c0,0.1-1.3,0.2-2.8,0.2h-5c-1.6,0-2.8,1.3-2.8,2.8V78c0,1.6,1.3,2.8,2.8,2.8H29c1.6,0,2.8,0.1,2.8,0.2
		c0,0.1-1.3,0.2-2.8,0.2h-0.8c-1.6,0-2.8,1.3-2.8,2.8v3.1c0,1.6,1.3,2.8,2.8,2.8h5C34.7,90,36,90.1,36,90.2z"/>
	<path class="st1" d="M36,90.2c0,0.1-1.3,0.2-2.8,0.2h-5.4c-1.6,0-2.8-1.3-2.8-2.8V75.3c0-1.6,1.3-2.8,2.8-2.8h5.4
		c1.6,0,2.8,0.1,2.8,0.2c0,0.1-1.3,0.2-2.8,0.2h-5c-1.6,0-2.8,1.3-2.8,2.8V78c0,1.6,1.3,2.8,2.8,2.8H29c1.6,0,2.8,0.1,2.8,0.2
		c0,0.1-1.3,0.2-2.8,0.2h-0.8c-1.6,0-2.8,1.3-2.8,2.8v3.1c0,1.6,1.3,2.8,2.8,2.8h5C34.7,90,36,90.1,36,90.2z"/>
</g>
<g>
	<path class="st0" d="M40,87.4c0,1.6-0.1,2.8-0.2,2.8s-0.2-1.3-0.2-2.8V75.5c0-1.6,0.1-2.8,0.2-2.8s0.2,1.3,0.2,2.8V87.4z"/>
	<path class="st1" d="M40,87.4c0,1.6-0.1,2.8-0.2,2.8s-0.2-1.3-0.2-2.8V75.5c0-1.6,0.1-2.8,0.2-2.8s0.2,1.3,0.2,2.8V87.4z"/>
</g>
<g>
	<path class="st0" d="M54.5,90.2c0,0.1-1.3,0.2-2.8,0.2H48c-1.6,0-2.8-1.3-2.8-2.8v-12c0-1.6,0.1-2.8,0.2-2.8s0.2,1.3,0.2,2.8v11.7
		c0,1.6,1.3,2.8,2.8,2.8h3.3C53.2,90,54.5,90.1,54.5,90.2z"/>
	<path class="st1" d="M54.5,90.2c0,0.1-1.3,0.2-2.8,0.2H48c-1.6,0-2.8-1.3-2.8-2.8v-12c0-1.6,0.1-2.8,0.2-2.8s0.2,1.3,0.2,2.8v11.7
		c0,1.6,1.3,2.8,2.8,2.8h3.3C53.2,90,54.5,90.1,54.5,90.2z"/>
</g>
<g>
	<path class="st0" d="M58.4,87.4c0,1.6-0.1,2.8-0.2,2.8S58,88.9,58,87.4V75.5c0-1.6,0.1-2.8,0.2-2.8s0.2,1.3,0.2,2.8V87.4z"/>
	<path class="st1" d="M58.4,87.4c0,1.6-0.1,2.8-0.2,2.8S58,88.9,58,87.4V75.5c0-1.6,0.1-2.8,0.2-2.8s0.2,1.3,0.2,2.8V87.4z"/>
</g>
<g>
	<path class="st0" d="M75.6,84.7c0,0.8-0.2,1.8-0.4,2.2c-0.2,0.5-0.8,1.3-1.3,1.7c-0.5,0.5-1.2,1-1.7,1.3c-0.5,0.2-1.6,0.4-2.6,0.4
		c-0.9,0-2.1-0.2-2.6-0.4c-0.5-0.2-1.3-0.8-1.7-1.3c-0.5-0.5-1-1.2-1.3-1.7c-0.2-0.5-0.6-1.4-0.8-2.1c-0.2-0.7-0.4-2.2-0.4-3.4
		s0.2-2.7,0.4-3.4c0.2-0.7,0.6-1.7,0.8-2.1c0.2-0.5,0.8-1.2,1.3-1.7c0.5-0.5,1.3-1.1,1.7-1.3c0.5-0.2,1.6-0.4,2.6-0.4
		c0.9,0,2.1,0.2,2.6,0.4c0.5,0.2,1.3,0.8,1.7,1.3c0.5,0.5,1,1.2,1.3,1.7c0.2,0.5,0.3,0.9,0.3,0.9c-0.1,0.1-0.4-0.3-0.6-0.7
		c-0.2-0.5-0.8-1.2-1.2-1.6c-0.4-0.4-1.2-1-1.6-1.2s-1.5-0.4-2.4-0.4c-0.9,0-2,0.2-2.4,0.4S66,74,65.5,74.5c-0.4,0.4-1,1.2-1.2,1.6
		c-0.2,0.4-0.6,1.4-0.8,2s-0.4,2.2-0.4,3.3s0.2,2.6,0.4,3.3s0.6,1.6,0.8,2c0.2,0.4,0.8,1.2,1.2,1.6c0.4,0.4,1.2,1,1.6,1.2
		s1.5,0.4,2.4,0.4c0.9,0,2-0.2,2.4-0.4s1.2-0.8,1.6-1.2c0.4-0.4,1-1.2,1.2-1.6c0.2-0.4,0.4-1.3,0.4-1.9s-0.9-1.1-2-1.1s-2-0.1-2-0.2
		c0-0.1,1-0.2,2.2-0.2S75.6,83.9,75.6,84.7z"/>
	<path class="st1" d="M75.6,84.7c0,0.8-0.2,1.8-0.4,2.2c-0.2,0.5-0.8,1.3-1.3,1.7c-0.5,0.5-1.2,1-1.7,1.3c-0.5,0.2-1.6,0.4-2.6,0.4
		c-0.9,0-2.1-0.2-2.6-0.4c-0.5-0.2-1.3-0.8-1.7-1.3c-0.5-0.5-1-1.2-1.3-1.7c-0.2-0.5-0.6-1.4-0.8-2.1c-0.2-0.7-0.4-2.2-0.4-3.4
		s0.2-2.7,0.4-3.4c0.2-0.7,0.6-1.7,0.8-2.1c0.2-0.5,0.8-1.2,1.3-1.7c0.5-0.5,1.3-1.1,1.7-1.3c0.5-0.2,1.6-0.4,2.6-0.4
		c0.9,0,2.1,0.2,2.6,0.4c0.5,0.2,1.3,0.8,1.7,1.3c0.5,0.5,1,1.2,1.3,1.7c0.2,0.5,0.3,0.9,0.3,0.9c-0.1,0.1-0.4-0.3-0.6-0.7
		c-0.2-0.5-0.8-1.2-1.2-1.6c-0.4-0.4-1.2-1-1.6-1.2s-1.5-0.4-2.4-0.4c-0.9,0-2,0.2-2.4,0.4S66,74,65.5,74.5c-0.4,0.4-1,1.2-1.2,1.6
		c-0.2,0.4-0.6,1.4-0.8,2s-0.4,2.2-0.4,3.3s0.2,2.6,0.4,3.3s0.6,1.6,0.8,2c0.2,0.4,0.8,1.2,1.2,1.6c0.4,0.4,1.2,1,1.6,1.2
		s1.5,0.4,2.4,0.4c0.9,0,2-0.2,2.4-0.4s1.2-0.8,1.6-1.2c0.4-0.4,1-1.2,1.2-1.6c0.2-0.4,0.4-1.3,0.4-1.9s-0.9-1.1-2-1.1s-2-0.1-2-0.2
		c0-0.1,1-0.2,2.2-0.2S75.6,83.9,75.6,84.7z"/>
</g>
<g>
	<path class="st0" d="M95.5,72.5c1.6,0,2.1,1.1,1.3,2.4l-8.6,12.8c-0.9,1.3-0.3,2.4,1.3,2.4h5.7c1.6,0,2.8,0.1,2.8,0.2
		c0,0.1-1.3,0.2-2.8,0.2h-6.4c-1.6,0-2.1-1.1-1.3-2.4l8.5-12.8c0.9-1.3,0.3-2.4-1.3-2.4h-5.7c-1.6,0-2.8-0.1-2.8-0.2
		c0-0.1,1.3-0.2,2.8-0.2H95.5z"/>
	<path class="st1" d="M95.5,72.5c1.6,0,2.1,1.1,1.3,2.4l-8.6,12.8c-0.9,1.3-0.3,2.4,1.3,2.4h5.7c1.6,0,2.8,0.1,2.8,0.2
		c0,0.1-1.3,0.2-2.8,0.2h-6.4c-1.6,0-2.1-1.1-1.3-2.4l8.5-12.8c0.9-1.3,0.3-2.4-1.3-2.4h-5.7c-1.6,0-2.8-0.1-2.8-0.2
		c0-0.1,1.3-0.2,2.8-0.2H95.5z"/>
</g>
<g>
	<path class="st0" d="M118.7,72.6c0.1,0-0.1,1.3-0.5,2.8l-2.9,12c-0.4,1.5-0.7,2.8-0.9,2.8s-0.5-1.2-0.9-2.8L111,76.2
		c-0.4-1.5-1-1.5-1.3,0L107,87.4c-0.4,1.5-0.7,2.8-0.9,2.8s-0.5-1.2-0.9-2.8l-2.9-12c-0.4-1.5-0.6-2.8-0.5-2.8s0.5,1.2,0.8,2.7
		l2.7,11.2c0.4,1.5,1,1.5,1.3,0l2.7-11.2c0.4-1.5,0.7-2.8,0.9-2.8s0.5,1.2,0.9,2.8l2.7,11.2c0.4,1.5,1,1.5,1.3,0l2.7-11.2
		C118.2,73.8,118.6,72.6,118.7,72.6z"/>
	<path class="st1" d="M118.7,72.6c0.1,0-0.1,1.3-0.5,2.8l-2.9,12c-0.4,1.5-0.7,2.8-0.9,2.8s-0.5-1.2-0.9-2.8L111,76.2
		c-0.4-1.5-1-1.5-1.3,0L107,87.4c-0.4,1.5-0.7,2.8-0.9,2.8s-0.5-1.2-0.9-2.8l-2.9-12c-0.4-1.5-0.6-2.8-0.5-2.8s0.5,1.2,0.8,2.7
		l2.7,11.2c0.4,1.5,1,1.5,1.3,0l2.7-11.2c0.4-1.5,0.7-2.8,0.9-2.8s0.5,1.2,0.9,2.8l2.7,11.2c0.4,1.5,1,1.5,1.3,0l2.7-11.2
		C118.2,73.8,118.6,72.6,118.7,72.6z"/>
</g>
<g>
	<path class="st0" d="M132.7,87.5c0.6,1.5,0.9,2.7,0.8,2.7c-0.1,0-0.6-1.1-1.2-2.6l-0.2-0.4c-0.6-1.5-2.3-2.6-3.9-2.6h-3
		c-1.6,0-3.3,1.2-3.9,2.6l-0.2,0.4c-0.6,1.5-1.1,2.6-1.2,2.6c-0.1,0,0.3-1.3,0.8-2.7l4.7-12.4c0.6-1.5,1.1-2.6,1.1-2.6
		c0.1,0,0.6,1.2,1.1,2.6L132.7,87.5z M128.2,84.1c1.6,0,2.4-1.2,1.8-2.6l-2.2-5.7c-0.6-1.5-1.5-1.5-2,0l-2.2,5.7
		c-0.6,1.5,0.3,2.6,1.8,2.6H128.2z"/>
	<path class="st1" d="M132.7,87.5c0.6,1.5,0.9,2.7,0.8,2.7c-0.1,0-0.6-1.1-1.2-2.6l-0.2-0.4c-0.6-1.5-2.3-2.6-3.9-2.6h-3
		c-1.6,0-3.3,1.2-3.9,2.6l-0.2,0.4c-0.6,1.5-1.1,2.6-1.2,2.6c-0.1,0,0.3-1.3,0.8-2.7l4.7-12.4c0.6-1.5,1.1-2.6,1.1-2.6
		c0.1,0,0.6,1.2,1.1,2.6L132.7,87.5z M128.2,84.1c1.6,0,2.4-1.2,1.8-2.6l-2.2-5.7c-0.6-1.5-1.5-1.5-2,0l-2.2,5.7
		c-0.6,1.5,0.3,2.6,1.8,2.6H128.2z"/>
</g>
<g>
	<path class="st0" d="M148.5,87.4c0,1.6-0.1,2.8-0.2,2.8c-0.1,0-0.9-1.1-1.8-2.4l-8.1-12.2c-0.9-1.3-1.6-1.1-1.6,0.5v11.3
		c0,1.6-0.1,2.8-0.2,2.8c-0.1,0-0.2-1.3-0.2-2.8V75.5c0-1.6,0.1-2.8,0.2-2.8c0.1,0,0.9,1.1,1.8,2.4l8.1,12.2
		c0.9,1.3,1.6,1.1,1.6-0.5V75.5c0-1.6,0.1-2.8,0.2-2.8s0.2,1.3,0.2,2.8V87.4z"/>
	<path class="st1" d="M148.5,87.4c0,1.6-0.1,2.8-0.2,2.8c-0.1,0-0.9-1.1-1.8-2.4l-8.1-12.2c-0.9-1.3-1.6-1.1-1.6,0.5v11.3
		c0,1.6-0.1,2.8-0.2,2.8c-0.1,0-0.2-1.3-0.2-2.8V75.5c0-1.6,0.1-2.8,0.2-2.8c0.1,0,0.9,1.1,1.8,2.4l8.1,12.2
		c0.9,1.3,1.6,1.1,1.6-0.5V75.5c0-1.6,0.1-2.8,0.2-2.8s0.2,1.3,0.2,2.8V87.4z"/>
</g>
<g>
	<path class="st0" d="M165.1,84.7c0,0.8-0.2,1.8-0.4,2.2c-0.2,0.5-0.8,1.3-1.3,1.7c-0.5,0.5-1.2,1-1.7,1.3c-0.5,0.2-1.6,0.4-2.6,0.4
		c-0.9,0-2.1-0.2-2.6-0.4c-0.5-0.2-1.3-0.8-1.7-1.3c-0.5-0.5-1-1.2-1.3-1.7c-0.2-0.5-0.6-1.4-0.8-2.1c-0.2-0.7-0.4-2.2-0.4-3.4
		s0.2-2.7,0.4-3.4c0.2-0.7,0.6-1.7,0.8-2.1c0.2-0.5,0.8-1.2,1.3-1.7c0.5-0.5,1.3-1.1,1.7-1.3c0.5-0.2,1.6-0.4,2.6-0.4
		c0.9,0,2.1,0.2,2.6,0.4c0.5,0.2,1.3,0.8,1.7,1.3c0.5,0.5,1,1.2,1.3,1.7s0.3,0.9,0.3,0.9c-0.1,0.1-0.4-0.3-0.6-0.7
		c-0.2-0.5-0.8-1.2-1.2-1.6s-1.2-1-1.6-1.2c-0.4-0.2-1.5-0.4-2.4-0.4s-2,0.2-2.4,0.4s-1.2,0.8-1.6,1.2c-0.4,0.4-1,1.2-1.2,1.6
		c-0.2,0.4-0.6,1.4-0.8,2s-0.4,2.2-0.4,3.3s0.2,2.6,0.4,3.3s0.6,1.6,0.8,2c0.2,0.4,0.8,1.2,1.2,1.6c0.4,0.4,1.2,1,1.6,1.2
		s1.5,0.4,2.4,0.4s2-0.2,2.4-0.4c0.4-0.2,1.2-0.8,1.6-1.2c0.4-0.4,1-1.2,1.2-1.6c0.2-0.4,0.4-1.3,0.4-1.9s-0.9-1.1-2-1.1
		c-1.1,0-2-0.1-2-0.2c0-0.1,1-0.2,2.2-0.2C164.1,83.3,165.1,83.9,165.1,84.7z"/>
	<path class="st1" d="M165.1,84.7c0,0.8-0.2,1.8-0.4,2.2c-0.2,0.5-0.8,1.3-1.3,1.7c-0.5,0.5-1.2,1-1.7,1.3c-0.5,0.2-1.6,0.4-2.6,0.4
		c-0.9,0-2.1-0.2-2.6-0.4c-0.5-0.2-1.3-0.8-1.7-1.3c-0.5-0.5-1-1.2-1.3-1.7c-0.2-0.5-0.6-1.4-0.8-2.1c-0.2-0.7-0.4-2.2-0.4-3.4
		s0.2-2.7,0.4-3.4c0.2-0.7,0.6-1.7,0.8-2.1c0.2-0.5,0.8-1.2,1.3-1.7c0.5-0.5,1.3-1.1,1.7-1.3c0.5-0.2,1.6-0.4,2.6-0.4
		c0.9,0,2.1,0.2,2.6,0.4c0.5,0.2,1.3,0.8,1.7,1.3c0.5,0.5,1,1.2,1.3,1.7s0.3,0.9,0.3,0.9c-0.1,0.1-0.4-0.3-0.6-0.7
		c-0.2-0.5-0.8-1.2-1.2-1.6s-1.2-1-1.6-1.2c-0.4-0.2-1.5-0.4-2.4-0.4s-2,0.2-2.4,0.4s-1.2,0.8-1.6,1.2c-0.4,0.4-1,1.2-1.2,1.6
		c-0.2,0.4-0.6,1.4-0.8,2s-0.4,2.2-0.4,3.3s0.2,2.6,0.4,3.3s0.6,1.6,0.8,2c0.2,0.4,0.8,1.2,1.2,1.6c0.4,0.4,1.2,1,1.6,1.2
		s1.5,0.4,2.4,0.4s2-0.2,2.4-0.4c0.4-0.2,1.2-0.8,1.6-1.2c0.4-0.4,1-1.2,1.2-1.6c0.2-0.4,0.4-1.3,0.4-1.9s-0.9-1.1-2-1.1
		c-1.1,0-2-0.1-2-0.2c0-0.1,1-0.2,2.2-0.2C164.1,83.3,165.1,83.9,165.1,84.7z"/>
</g>
<g>
	<path class="st0" d="M179.7,90.2c0,0.1-1.3,0.2-2.8,0.2h-5.4c-1.6,0-2.8-1.3-2.8-2.8V75.3c0-1.6,1.3-2.8,2.8-2.8h5.4
		c1.6,0,2.8,0.1,2.8,0.2c0,0.1-1.3,0.2-2.8,0.2h-5c-1.6,0-2.8,1.3-2.8,2.8V78c0,1.6,1.3,2.8,2.8,2.8h0.8c1.6,0,2.8,0.1,2.8,0.2
		c0,0.1-1.3,0.2-2.8,0.2h-0.8c-1.6,0-2.8,1.3-2.8,2.8v3.1c0,1.6,1.3,2.8,2.8,2.8h5C178.4,90,179.7,90.1,179.7,90.2z"/>
	<path class="st1" d="M179.7,90.2c0,0.1-1.3,0.2-2.8,0.2h-5.4c-1.6,0-2.8-1.3-2.8-2.8V75.3c0-1.6,1.3-2.8,2.8-2.8h5.4
		c1.6,0,2.8,0.1,2.8,0.2c0,0.1-1.3,0.2-2.8,0.2h-5c-1.6,0-2.8,1.3-2.8,2.8V78c0,1.6,1.3,2.8,2.8,2.8h0.8c1.6,0,2.8,0.1,2.8,0.2
		c0,0.1-1.3,0.2-2.8,0.2h-0.8c-1.6,0-2.8,1.3-2.8,2.8v3.1c0,1.6,1.3,2.8,2.8,2.8h5C178.4,90,179.7,90.1,179.7,90.2z"/>
</g>
<g>
	<path class="st0" d="M194.7,76.8c0,0.5-0.2,1.3-0.4,1.8c-0.2,0.5-0.6,1.1-0.9,1.3s-1,0.6-1.7,0.9c-0.7,0.2-1.6,0.4-2,0.4
		c-0.4,0,0,1.1,0.9,2.4l2.6,4.1c0.8,1.3,1.4,2.4,1.4,2.5s-0.9-1-1.7-2.3l-2.7-4.3c-0.8-1.3-2.8-2.4-4.3-2.4S183,82.5,183,84v3.3
		c0,1.6-0.1,2.8-0.2,2.8c-0.1,0-0.2-1.3-0.2-2.8V75.3c0-1.6,1.3-2.8,2.8-2.8h2.1c1.6,0,3.4,0.2,4.1,0.4c0.7,0.2,1.5,0.6,1.7,0.9
		s0.6,0.8,0.9,1.3C194.5,75.5,194.7,76.3,194.7,76.8z M193.9,78.4c0.2-0.4,0.4-1.2,0.4-1.6c0-0.4-0.2-1.1-0.4-1.6
		c-0.2-0.4-0.6-1-0.8-1.2c-0.2-0.2-0.9-0.6-1.6-0.8c-0.7-0.2-2.5-0.4-4.1-0.4h-1.6c-1.6,0-2.8,1.3-2.8,2.8V78c0,1.6,1.3,2.8,2.8,2.8
		h1.6c1.6,0,3.4-0.2,4.1-0.4c0.7-0.2,1.4-0.6,1.6-0.8C193.4,79.4,193.7,78.8,193.9,78.4z"/>
	<path class="st1" d="M194.7,76.8c0,0.5-0.2,1.3-0.4,1.8c-0.2,0.5-0.6,1.1-0.9,1.3s-1,0.6-1.7,0.9c-0.7,0.2-1.6,0.4-2,0.4
		c-0.4,0,0,1.1,0.9,2.4l2.6,4.1c0.8,1.3,1.4,2.4,1.4,2.5s-0.9-1-1.7-2.3l-2.7-4.3c-0.8-1.3-2.8-2.4-4.3-2.4S183,82.5,183,84v3.3
		c0,1.6-0.1,2.8-0.2,2.8c-0.1,0-0.2-1.3-0.2-2.8V75.3c0-1.6,1.3-2.8,2.8-2.8h2.1c1.6,0,3.4,0.2,4.1,0.4c0.7,0.2,1.5,0.6,1.7,0.9
		s0.6,0.8,0.9,1.3C194.5,75.5,194.7,76.3,194.7,76.8z M193.9,78.4c0.2-0.4,0.4-1.2,0.4-1.6c0-0.4-0.2-1.1-0.4-1.6
		c-0.2-0.4-0.6-1-0.8-1.2c-0.2-0.2-0.9-0.6-1.6-0.8c-0.7-0.2-2.5-0.4-4.1-0.4h-1.6c-1.6,0-2.8,1.3-2.8,2.8V78c0,1.6,1.3,2.8,2.8,2.8
		h1.6c1.6,0,3.4-0.2,4.1-0.4c0.7-0.2,1.4-0.6,1.6-0.8C193.4,79.4,193.7,78.8,193.9,78.4z"/>
</g>
<g>
	<path class="st2" d="M131.2,108.6l-0.2,0.1l-1.5-3.8h-5.7l-1.4,3.8l-0.2-0.1l4.4-11.6h0.2L131.2,108.6z M129.4,104.7l-2.7-7.2
		l-2.8,7.2H129.4z"/>
	<path class="st2" d="M141.6,108.7h-0.2V97.8l-4.1,10.9h-0.3l-4.1-10.9v10.9h-0.2V97h0.2l4.3,11.3l4.3-11.3h0.2V108.7z"/>
	<path class="st2" d="M151.9,106.5l-0.6,1.1l-0.6,0.6l-1.7,0.6H144V97h5.1l1.7,0.6l0.6,0.6l0.6,1.2v1.2l-0.6,1.1l-0.6,0.6l-1.3,0.4
		l1.3,0.4l0.6,0.6l0.6,1.2V106.5z M151.7,100.4v-1l-0.5-1.1l-0.5-0.5l-1.6-0.5h-4.8v5.2h4.8l1.6-0.5l0.5-0.5L151.7,100.4z
		 M151.7,106.4v-1.6l-0.5-1.1l-0.5-0.5l-1.6-0.5h-4.8v5.8h4.8l1.6-0.5l0.5-0.5L151.7,106.4z"/>
	<path class="st2" d="M162.5,108.6l-0.2,0.1l-1.5-3.8h-5.7l-1.4,3.8l-0.2-0.1l4.4-11.6h0.2L162.5,108.6z M160.7,104.7l-2.7-7.2
		l-2.8,7.2H160.7z"/>
	<path class="st2" d="M171.8,106l-0.6,1.1l-1.1,1.1l-1.2,0.6h-2.3l-1.1-0.6l-1.1-1.1l-0.5-1.1l-0.6-1.7v-2.8l0.6-1.7l0.5-1.1
		l1.1-1.1l1.1-0.6h2.3l1.2,0.6l1.1,1.1l0.6,1.1l-0.2,0.1l-0.5-1.1l-1.1-1.1l-1.1-0.5h-2.1l-1.1,0.5l-1.1,1.1l-0.6,1.1l-0.5,1.6v2.7
		l0.5,1.6l0.6,1.1l1.1,1.1l1.1,0.5h2.1l1.1-0.5l1.1-1.1l0.5-1.1L171.8,106z"/>
	<path class="st2" d="M184.3,108.7h-0.3v-5.9h-8v5.9h-0.2V97.1h0.2v5.4h8v-5.4h0.3V108.7z"/>
	<path class="st2" d="M194.6,97.3h-3.7v11.4h-0.3V97.3h-3.7V97h7.7V97.3z"/>
</g>
<path class="st3" d="M101.2,36.4c-1.2-4.3-4.4-8.2-9-8.5c-4.2-0.3-8.8,1.5-12.4,3.6c-1.6,0.9-2.6,2.4-4.4,1.8
	c-2.2-0.7-4.5-1.2-6.8-1.4c-4.5-0.5-10.3-0.2-13.4,3.7c-2.7,3.3-2.8,8.4-1.7,12.3c1.4,5.1,5.4,8.6,9.6,11.6c4.5,3.2,9.9,6,15.5,7
	c4.1,0.7,6.5-0.1,9.8-2.5C97,57.6,104.3,47.4,101.2,36.4z M97.4,52.7c-3.2,4.2-6.8,8.1-11.1,11.2c-2.9,2-4,2.5-7.5,2
	c-9.5-1.5-21.4-8.7-24-18.6c-0.9-3.3-0.6-7.3,1.7-10c3.3-4,8.4-4,13.1-3.3c1.8,0.3,3.5,0.7,5.2,1.3c1.5,0.5,1.8,1,3,0.1
	c3.3-2.5,6.6-4.6,10.6-5.9c5.6-1.8,10.8,1.1,12.4,6.7C102.4,41.8,101,48,97.4,52.7z"/>
<path class="st3" d="M94.4,33.6c-2.5-3-7.4-3-10.4-0.7c-3.6,2.7-3.2,8.2-0.6,11.4c2.2,2.8,6.5,4.2,9.7,2.2
	C97.3,43.8,97.5,37.2,94.4,33.6z M93.4,44.4c-2.2,1.3-6.2,2-8.4,0.3c-2.9-2.2-3-6.9-0.5-9.4c2.7-2.6,7.4-2.8,10,0.1
	C96.9,38.1,96.6,42.5,93.4,44.4z"/>
<path class="st3" d="M82.1,47.8c-1.5-1.3-2.8-2.9-4-4.5c-1-1.3-1.9-3.6-3.6-4.1c-3.3-0.8-3.9,3.2-3.5,5.5c0.4,1.9,2.6,5.1,1.7,7
	c-1,2.3-5.4,1.6-7.4,1.6c4.1,3.5,8.7,6,14.2,4.7c4.7-1.1,7.9-3.9,11-7.4C90.6,50.6,86,51,82.1,47.8z M87.9,52.5
	c-4.8,3.6-11.4,4.9-17,2.5c3.1-1.1,3.5-3.7,2.5-6.5c-0.7-1.8-2.6-4.7-1.7-6.7c0.7-1.6,2.5-1.8,3.7-0.7c2.2,2,2.9,5.3,5.1,7.4
	c2.4,2.3,6,2.4,9.1,2.5C89.6,51,88.7,51.8,87.9,52.5z"/>
<path class="st0" d="M84.3,17.1c-0.4-8.4-9.9-12.5-16.7-8c-4.6,3.1-6.2,10-3.3,14.8c2.2,3.6,7.5,7.1,12,5.9
	C81.7,28.4,84.5,22.3,84.3,17.1z M75.1,28.1c-5.8,1.4-11.3-3.9-11.1-9.7c0.2-4.7,4.6-8.9,9.3-9.1c4.7-0.2,9,2.7,9.9,7.5
	C84.3,22.7,80.6,26.8,75.1,28.1z"/>
</svg>
