<?xml version="1.0" encoding="utf-8"?>
<!-- Generator: Adobe Illustrator 22.0.1, SVG Export Plug-In . SVG Version: 6.00 Build 0)  -->
<svg version="1.1" id="Layer_1" xmlns="http://www.w3.org/2000/svg" xmlns:xlink="http://www.w3.org/1999/xlink" x="0px" y="0px"
	 viewBox="0 0 500 500" style="enable-background:new 0 0 500 500;" xml:space="preserve">
<style type="text/css">
	.st0{fill:none;stroke:#020203;stroke-width:8;stroke-linecap:round;stroke-linejoin:round;stroke-miterlimit:10;}
</style>
<path class="st0" d="M366.3,396.5c-0.2,0.2-0.4,0.3-0.6,0.5c-5.1,4.2-12.9,0.9-18-3.3c-8.2-6.8-18.7-19-18.9-30.3
	c-0.1-5.2,2-10.2,5.4-13.3c3.5-3,8.3-4,13.8-0.9c6.2,3.5,9.6,10.4,12.6,16.9c1.7,3.6,3.3,7.1,5,10.7c4.1,8.8,1.4,16.1,3.2,24.2
	c2.7,12.2,9.5,26.1,13.4,38.2c4.8,14.9,13.7,30.5,28.8,34.9c1.8,0.5,3.8,0.9,5.6,0.2c2.6-10.8-5.4-21-12.9-29.2
	c-7-7.7-14-15.5-21-23.2c-1.5-1.7-4.5-3.3-5.7-1.4"/>
<path class="st0" d="M124.4,133.9c-15.3,11.7-35,27-49.2,40.1c-13.8,12.6-18.8,21.5-26.6,40.5c-0.8,1.8-1,4-0.4,5.9
	c1.5,5.1,9.2,5.5,13.2,2.1S75,208,76.3,202.9c6.2-24,11-22,41.1-44.6c7.4-5.6,23.5-22.6,40.2-27.7c13.6-4.2,27.8,3.6,32.1,7.2
	c6.5,5.5,7.8,15,15.1,19.4c7.7,4.5,12.7,0.5,18.7-6.1c1.8-1.9,3.6-4,4.1-6.6c0.8-4.4-2.4-8.3-4.6-12.2c-5.9-10.1-5.4-22.6-3.6-34.2
	c0.7-4.9,6-7.9,9-11.8c2.9-3.9,11.8-7.8,16.1-10c27.3-14.5,48.4-29.3,57.6-28.9c7.2,0.3,36.3,1.3,43.2-1s11.8-7.3,7.5-13.1
	c-2.6-3.6-7.5-4.4-11.9-4.8c-14.1-1.1-29-1.2-42.3,4.2c-27.2,11.2-62.2,26-86.2,45.7c-15.7,12.9-10.6,33.8-13.5,39.5
	c-3.5,7-25.1-5.7-36.4-6.3C151.2,110.8,144.5,118.5,124.4,133.9z"/>
<path class="st0" d="M214.6,181.6c5.2-2.4,24.8-15.8,29.9-14.1c4.3,1.4,7.1,5.3,9.6,9C286,223.7,293,237.4,325,284.6
	c6,8.8,12.2,19.5,8.4,29.4c-3.1,8.2-12,12.4-20.1,15.7c-4.7,1.9-9.9,3.7-14.7,2c-4.5-1.6-7.3-5.9-9.9-10
	c-33.5-53.5-42.1-73.6-75.7-127.1L214.6,181.6z"/>
<path class="st0" d="M207.3,182.6c1.3,0.9,3,0.2,4.4-0.6c9.1-4.7,18.3-9.5,27.4-14.2c0.7-0.4,1.4-0.8,2-1.4c1-1.2,0.9-3.1,0.6-4.7
	c-1.5-6.4-6.4-11.9-12.5-14.1c-0.4-0.1-0.8-0.3-1.3-0.2c-0.6,0.1-0.9,0.6-1.3,1c-4.8,5.7-13.4,7.8-17.5,13.8
	C206.7,165.6,203.8,180.3,207.3,182.6z"/>
<path class="st0" d="M309.4,343.8c2.7,3.7,6,7,8.3,11c0.9,1.5,1.7,3.3,3.3,3.9c2,0.8,4.2-0.5,5.5-2.1c1.3-1.6,2.2-3.7,3.6-5.2
	c3.2-3.6,8.6-4.3,11.9-7.8c3.4-3.6,3.5-9.3,1.6-13.8c-1.9-4.5-5.4-8.2-8.8-11.7c-0.5-0.5-1.1-1-1.8-1c-0.5,0-0.9,0.3-1.3,0.6
	c-6.2,4.8-13.2,9.7-20.4,12.7c-1.6,0.7-5.2,0.4-6.1,1.9C303.4,335.3,307.8,341.7,309.4,343.8z"/>
</svg>
