<?xml version="1.0" encoding="utf-8"?>
<!-- Generator: Adobe Illustrator 22.0.1, SVG Export Plug-In . SVG Version: 6.00 Build 0)  -->
<svg version="1.1" id="Layer_1" xmlns="http://www.w3.org/2000/svg" xmlns:xlink="http://www.w3.org/1999/xlink" x="0px" y="0px"
	 viewBox="0 0 500 500" style="enable-background:new 0 0 500 500;" xml:space="preserve">
<style type="text/css">
	.st0{fill:none;stroke:#020203;stroke-width:8;stroke-linecap:round;stroke-linejoin:round;stroke-miterlimit:10;}
</style>
<path class="st0" d="M94,224.4c-26.4-0.2-9.1,0.7-35.2,0.7c-7.2,0-25-0.4-31.9-2.3c-14.6-4-16.1-33.2,5.1-36.7
	c26-4.3,31.8-3.1,58.1-2c3.4,0.1,0,0,3.4,0.1"/>
<path class="st0" d="M208.7,184.7c34.7-0.1,93.5,1.7,128.3,1.1c39.5-0.6,79.8-3.1,119.4-1.3c6.9,0.3,13.9-0.6,19.2,3.3
	c5.3,3.9,10.8,18.6,7.3,24.2c-3.4,5.2-8.8,9.6-15,9.9c-76.3,3.8-178.4,2-256.1,1.7"/>
<path class="st0" d="M386.5,111.1c1-13.9,2.4-29.6,14.9-35.8c12.5-6.2,38.5-3.1,44.9,9.2c2.5,4.9,3.2,10.5,3.7,16
	c2.4,25.9,2.7,58.9,0.4,84.8"/>
<path class="st0" d="M456.3,222.5c7,53.6,2.7,113.2-30.5,147c-6.4,6.6-19.9,16.7-28.5,19.9c-9.5,3.5-25.1,7.9-35.1,8.9
	c-44.7,4.4-122.3,7.3-167,3c-44.7-4.3-66.5-15.9-101.7-43.7c-35.2-27.8-51.9-88.1-49.7-132.9"/>
<path class="st0" d="M382.4,425.9c-6.7-7.9-9.1-18.9-12-28.9"/>
<path class="st0" d="M143.6,427.8c4.8-10.8,7.1-23.2,12-34"/>
<path class="st0" d="M188.4,170.7c1.1,0,2.2,0,3.2,0.3c2.4,0.9,3.5,3.5,4,6c2.3,10.9-2.7,22.2-1.6,33.2c0.6,6,3,11.9,2.8,17.9
	c-0.1,3.4-1,6.8-0.5,10.2c0.3,1.8,0.9,3.5,1,5.3c0.2,4.2-2.8,7.9-6.4,10c-3.6,2-7.9,2.6-12,3.2c-11,1.6-22.1,3.1-33.2,2.1
	c-14.8-1.4-29.4-7.6-44.1-5.2c4.4-2.8,5-8.9,5.1-14.2c0.3-20,0.6-40,0.5-60c-0.1-10.8,9.4-6.2,17.2-5.3c10,1.1,20.2,0.5,30.2-0.5
	C165.9,172.7,177.1,171.1,188.4,170.7z"/>
</svg>
