<?xml version="1.0" encoding="utf-8"?>
<!-- Generator: Adobe Illustrator 24.0.0, SVG Export Plug-In . SVG Version: 6.00 Build 0)  -->
<svg version="1.1" id="Layer_2" xmlns="http://www.w3.org/2000/svg" xmlns:xlink="http://www.w3.org/1999/xlink" x="0px" y="0px"
	 viewBox="0 0 500 500" style="enable-background:new 0 0 500 500;" xml:space="preserve">
<style type="text/css">
	.st0{fill:none;stroke:#020203;stroke-width:8;stroke-linecap:round;stroke-linejoin:round;stroke-miterlimit:10;}
</style>
<path class="st0" d="M322.4,429.7c31.5-5.5,57-37.3,78.6-60.5c48-52.4,55.1-130,28.4-193.3C397.9,102.6,305.2,42.4,231.8,56.6
	c-61,8.5-88.6,26.1-123.9,63.4c-51.4,46.5-59.6,129.1-46.4,178.1c6.8,24,11.2,36.7,24.1,51.3c14.1,18.7,22.5,31.9,31.7,39.3
	c21.8,19.3,43.2,35.5,75.7,46"/>
<path class="st0" d="M391.5,250.1c5.5,0.2,17.3-0.9,20.4,0.5"/>
<path class="st0" d="M250.1,86.6c0.1,6.4,0.2,12.8,0.4,19.1"/>
<path class="st0" d="M89.2,249.8c6-0.9,12.1-1.2,18.2-0.9"/>
<path class="st0" d="M233.9,244.8c-6.7,21,23.4,27.6,30.1,10.4C273.3,230.9,241.4,221.5,233.9,244.8z"/>
<path class="st0" d="M164.6,164.5c13.6,13.5,26.5,25.4,40.2,41c10.5,11.9,23.1,19.9,33.7,31.3c0,0.2-5.6-4.8-5.7-5.1"/>
<path class="st0" d="M245.7,265.3c-10.7,30.2-19.5,63.3-28,93.9c-7.1,25.5-17.8,50.1-24.7,75.5"/>
<path class="st0" d="M261.4,442.5c10.8,3,21,6.9,30.6,13.7c8.9,2,39.4,18.5,31.5,2.9c-6.1-16.7-1.9-37.8-12.9-54.7
	C299.7,398.2,265.9,437.5,261.4,442.5z"/>
</svg>
