<?xml version="1.0" encoding="utf-8"?>
<!-- Generator: Adobe Illustrator 22.0.1, SVG Export Plug-In . SVG Version: 6.00 Build 0)  -->
<svg version="1.1" id="Layer_1" xmlns="http://www.w3.org/2000/svg" xmlns:xlink="http://www.w3.org/1999/xlink" x="0px" y="0px"
	 viewBox="0 0 500 500" style="enable-background:new 0 0 500 500;" xml:space="preserve">
<style type="text/css">
	.st0{fill:none;stroke:#020203;stroke-width:8;stroke-linecap:round;stroke-linejoin:round;stroke-miterlimit:10;}
</style>
<path class="st0" d="M160.8,410.6c-91.4-40.4-168-205.1-106-290.2c54.7-75,223.3-88.1,203.9,42.8c25-41.2,88.4-87.3,139-72.3
	c45.9,13.6,61,73.2,57.5,115.4c-8.2,98-129.6,234.4-231,237.2"/>
<path class="st0" d="M149.8,407.9c-86.4-50.1-144.5-222.3-73.5-300c62.5-68.5,231.6-63.1,198,64.8c29.4-38.2,97.5-77,146.1-56.6
	c44.1,18.5,52.6,79.5,44.5,121c-18.9,96.5-154.5,218.8-255.5,210.5"/>
</svg>
