<?xml version="1.0" encoding="utf-8"?>
<!-- Generator: Adobe Illustrator 22.0.1, SVG Export Plug-In . SVG Version: 6.00 Build 0)  -->
<svg version="1.1" id="Layer_1" xmlns="http://www.w3.org/2000/svg" xmlns:xlink="http://www.w3.org/1999/xlink" x="0px" y="0px"
	 viewBox="0 0 500 500" style="enable-background:new 0 0 500 500;" xml:space="preserve">
<style type="text/css">
	.st0{fill:none;stroke:#020203;stroke-width:8;stroke-linecap:round;stroke-linejoin:round;stroke-miterlimit:10;}
</style>
<path class="st0" d="M276.4,37.4C162,41.1,43.2,136,32.7,253.2c-11,123.2,97.3,215,216.5,210.5c119.8-4.5,205.5-126.5,218.4-235.7
	c6.3-53.6,3.8-124.1-44.4-158.8C383,40.2,323.9,35.9,276.4,37.4z"/>
<path class="st0" d="M352.2,97.1c-79.7-19.1-128.1,120.2-35.5,131.8C406.1,240,439.9,118.1,352.2,97.1z"/>
<path class="st0" d="M311.2,229.2c-53.4,32.5-42.9-45.5-78.7-36.9c-20.6,4.9-12.6,29-8.5,43.6c8.4,29.5,25,35.7,33.4,38.8
	c8.8,3.2,25.8,2.5,22.5,14.4c-5.3,19.1-44,37-61.8,32.9c-19.7-4.5-18.5-20.6-33.8-29.5c-19.7-11.4-53.1-0.3-68.2,14.5
	c-12.6,12.3-31.5,36.1-3.7,46.1c17.6,6.3,31-15.3,47.5-14.1c42.7,3.2,19.6,72.6,79,70.6c45.4-1.5,82.8-35.2,104-72.4
	c8.8-15.5,38.5-98,5.2-110.1"/>
<path class="st0" d="M257.9,311.9c-14.5-15.9-33.7-24.9-45.9-43c-15.9-23.4-15.5-53.9-26.7-79c-26.4-59.2-66.5-34.2-116.5-33.7"/>
</svg>
