<?xml version="1.0" encoding="utf-8"?>
<!-- Generator: Adobe Illustrator 22.0.1, SVG Export Plug-In . SVG Version: 6.00 Build 0)  -->
<svg version="1.1" id="Layer_1" xmlns="http://www.w3.org/2000/svg" xmlns:xlink="http://www.w3.org/1999/xlink" x="0px" y="0px"
	 viewBox="0 0 500 500" style="enable-background:new 0 0 500 500;" xml:space="preserve">
<style type="text/css">
	.st0{fill:none;stroke:#020203;stroke-width:8;stroke-linecap:round;stroke-linejoin:round;stroke-miterlimit:10;}
	.st1{fill:none;stroke:#010202;stroke-width:8;stroke-miterlimit:10;}
</style>
<path class="st0" d="M274.2,243.8c-47.4-7.6-103.1-74.8-84.7-121.8c16.2-41.5,92.9-68.2,99.9-5.1c6.6-22.2,30.4-51.3,55.7-50.6
	c23,0.7,37.3,26.6,40.8,46.6c8.1,46.5-31.5,124.7-78.3,138.4"/>
<path class="st1" d="M212.3,346.6c39.4,3.2,79.2,1.9,118.4-3.9c5.9-0.9,12.6-2.5,15.1-7.9c1.6-3.5,0.9-7.6,0.1-11.4
	c-1.9-9.7-4.6-20.5-12.8-25.9c-5.5-3.6-12.4-4-19-4.4c-23.1-1.2-46.1-2.4-69.2-3.6c-9.2-0.5-18.5-1-27.5-2.8
	c-7.5-1.5-14.9-4-22.3-5.8c-39.9-9.6-84.2,1.8-114.5,29.5c-9.6,8.7-17.7,18.9-25.8,29c-10,12.5-20,24.9-30,37.4
	c23.8,26.2,46.3,53.6,67.3,82.1c27.1-14.9,47.7-43.4,78.3-48.2c8-1.3,16.1-0.8,24.2-0.3c19.3,1.2,38.6,2.3,58,3.5
	c18.2,1.1,37,2.1,54.1-4.1c16.9-6.2,40.5-16.5,53.6-28.9c22.5-21.3,65.7-39.1,80-66.7c9.1-17.6,23.4-50.8,23-70.6
	c-0.1-2.9-0.4-5.9-2.1-8.3c-1.6-2.2-4.3-3.4-6.8-4.4c-7.4-3.1-7.1-5.8-15-5.9c-18.9-0.3-33.4,30.4-41.9,47.3
	c-8.5,16.9-57,33.5-57,33.5"/>
</svg>
