<?xml version="1.0" encoding="utf-8"?>
<!-- Generator: Adobe Illustrator 24.0.0, SVG Export Plug-In . SVG Version: 6.00 Build 0)  -->
<svg version="1.1" id="Layer_6" xmlns="http://www.w3.org/2000/svg" xmlns:xlink="http://www.w3.org/1999/xlink" x="0px" y="0px"
	 viewBox="0 0 500 500" style="enable-background:new 0 0 500 500;" xml:space="preserve">
<style type="text/css">
	.st0{fill:none;stroke:#020203;stroke-width:8;stroke-linecap:round;stroke-linejoin:round;stroke-miterlimit:10;}
</style>
<path class="st0" d="M206.3,360.6c4.1,33.8,15.4,75.3,12.3,104.6"/>
<path class="st0" d="M247.3,467c3-36.3,7.7-78.4,12.7-114.5"/>
<path class="st0" d="M233.3,137.7c35.2-16.5,33.1-24.6,27.3-54.1c2-43-52-53-77.7-28.2c-23.3,25.4-18.1,73.7-12.5,97.3
	c5.9-3.5,12.5-5.9,19.2-6.8c-5.6,25.6-11.3,51.3-16.9,76.9c29.8,8.6,56.9,34.2,91.7,34.8"/>
<path class="st0" d="M218.2,209.1c9,6.5,19.3,11.1,30.1,13.5"/>
<path class="st0" d="M245.4,159.4c4.6,11.9,13.5,28.4,18.1,40.3c71.2,5.8,84,93.3,30,119.3c4.7,10,8.4,20.5,11.3,31.2
	c-43.3-7.6-86.8,21.7-131,5c0.2-42.7,3.8-85.4,10.5-127.6"/>
</svg>
